<?xml version="1.0" encoding="UTF-8"?>
<svg id="Camada_2" data-name="Camada 2" xmlns="http://www.w3.org/2000/svg" viewBox="0 0 542 180.21">
  <defs>
    <style>
      .cls-1 {
        fill: #fff;
      }

      .cls-1, .cls-2 {
        stroke-width: 0px;
      }

      .cls-2 {
        fill: #8bc540;
      }
    </style>
  </defs>
  <g id="Camada_1-2" data-name="Camada 1">
    <g>
      <rect class="cls-2" x="63.26" y="156.48" width="3.92" height="18.65"/>
      <path class="cls-2" d="M81.9,168.37c0-2.34-1.51-3.75-3.44-3.75s-3.47,1.41-3.47,3.75,1.51,3.74,3.47,3.74,3.44-1.41,3.44-3.74M85.75,156.48v18.65h-3.75v-1.56c-.98,1.18-2.41,1.76-4.22,1.76-3.82,0-6.76-2.72-6.76-6.96s2.94-6.96,6.76-6.96c1.66,0,3.07.53,4.05,1.63v-6.56h3.92Z"/>
      <path class="cls-2" d="M90.51,161.61h3.92v13.53h-3.92v-13.53ZM90.03,157.54c0-1.23.98-2.19,2.44-2.19s2.44.91,2.44,2.11c0,1.31-.98,2.26-2.44,2.26s-2.44-.96-2.44-2.19"/>
      <path class="cls-2" d="M113.05,167.39v7.74h-3.92v-7.14c0-2.19-1.01-3.19-2.74-3.19-1.89,0-3.24,1.15-3.24,3.64v6.69h-3.92v-13.53h3.75v1.58c1.06-1.15,2.64-1.78,4.47-1.78,3.19,0,5.61,1.86,5.61,5.98"/>
      <path class="cls-2" d="M127.97,167.95c0-1.99-1.48-3.32-3.55-3.32s-3.57,1.33-3.57,3.32,1.51,3.32,3.57,3.32,3.55-1.33,3.55-3.32M131.84,161.61v11.26c0,5.03-2.72,7.34-7.59,7.34-2.57,0-5.06-.63-6.64-1.86l1.56-2.82c1.16.93,3.04,1.53,4.78,1.53,2.76,0,3.97-1.26,3.97-3.69v-.58c-1.03,1.13-2.51,1.68-4.27,1.68-3.75,0-6.76-2.59-6.76-6.54s3.02-6.54,6.76-6.54c1.88,0,3.44.63,4.47,1.94v-1.73h3.72Z"/>
      <path class="cls-2" d="M143.63,168.37c0-4.07,3.14-6.96,7.54-6.96,2.84,0,5.08,1.23,6.06,3.44l-3.04,1.63c-.73-1.28-1.81-1.86-3.04-1.86-1.99,0-3.54,1.38-3.54,3.75s1.56,3.74,3.54,3.74c1.23,0,2.31-.55,3.04-1.86l3.04,1.66c-.98,2.16-3.22,3.42-6.06,3.42-4.4,0-7.54-2.89-7.54-6.96"/>
      <path class="cls-2" d="M170.34,168.37c0-2.34-1.48-3.75-3.44-3.75s-3.47,1.41-3.47,3.75,1.51,3.74,3.47,3.74,3.44-1.41,3.44-3.74M159.46,168.37c0-4.07,3.14-6.96,7.44-6.96s7.42,2.89,7.42,6.96-3.12,6.96-7.42,6.96-7.44-2.89-7.44-6.96"/>
      <path class="cls-2" d="M200.92,167.39v7.74h-3.92v-7.14c0-2.19-.98-3.19-2.56-3.19-1.76,0-2.99,1.13-2.99,3.54v6.79h-3.92v-7.14c0-2.19-.93-3.19-2.56-3.19-1.73,0-2.97,1.13-2.97,3.54v6.79h-3.92v-13.53h3.75v1.56c1.01-1.16,2.51-1.76,4.25-1.76,1.89,0,3.49.73,4.45,2.21,1.08-1.38,2.84-2.21,4.88-2.21,3.22,0,5.53,1.86,5.53,5.98"/>
      <path class="cls-2" d="M216.34,168.37c0-2.34-1.48-3.75-3.44-3.75s-3.44,1.41-3.44,3.75,1.48,3.74,3.44,3.74,3.44-1.41,3.44-3.74M220.32,168.37c0,4.25-2.94,6.96-6.74,6.96-1.68,0-3.07-.53-4.07-1.63v6.31h-3.92v-18.4h3.75v1.56c.98-1.18,2.44-1.76,4.25-1.76,3.8,0,6.74,2.72,6.74,6.96"/>
      <path class="cls-2" d="M231.89,170.86v-1.38h-2.69c-1.83,0-2.41.68-2.41,1.58,0,.98.83,1.63,2.21,1.63,1.31,0,2.44-.6,2.89-1.83M235.81,167.42v7.72h-3.67v-1.69c-.73,1.23-2.14,1.89-4.12,1.89-3.17,0-5.05-1.76-5.05-4.1s1.68-4.05,5.81-4.05h3.12c0-1.68-1.01-2.67-3.12-2.67-1.43,0-2.92.48-3.9,1.26l-1.41-2.74c1.48-1.06,3.67-1.63,5.83-1.63,4.12,0,6.51,1.91,6.51,6.01"/>
      <path class="cls-2" d="M254.33,167.39v7.74h-3.92v-7.14c0-2.19-1.01-3.19-2.74-3.19-1.89,0-3.24,1.15-3.24,3.64v6.69h-3.92v-13.53h3.75v1.58c1.06-1.15,2.64-1.78,4.47-1.78,3.19,0,5.61,1.86,5.61,5.98"/>
      <path class="cls-2" d="M272.19,161.61l-6.11,14.35c-1.31,3.27-3.17,4.25-5.61,4.25-1.38,0-2.89-.45-3.77-1.23l1.43-2.79c.6.53,1.43.86,2.21.86,1.08,0,1.68-.48,2.21-1.68l.05-.13-5.86-13.63h4.05l3.8,9.18,3.82-9.18h3.77Z"/>
      <path class="cls-2" d="M22.85,167.39v7.74h-3.92v-7.14c0-2.19-.98-3.19-2.56-3.19-1.76,0-2.99,1.13-2.99,3.54v6.79h-3.92v-7.14c0-2.19-.93-3.19-2.56-3.19-1.73,0-2.97,1.13-2.97,3.54v6.79H0v-13.53h3.74v1.56c1.01-1.16,2.52-1.76,4.25-1.76,1.89,0,3.49.73,4.45,2.21,1.08-1.38,2.84-2.21,4.88-2.21,3.22,0,5.53,1.86,5.53,5.98"/>
      <path class="cls-2" d="M37.12,168.37c0-2.34-1.48-3.75-3.44-3.75s-3.47,1.41-3.47,3.75,1.51,3.74,3.47,3.74,3.44-1.41,3.44-3.74M26.24,168.37c0-4.07,3.14-6.96,7.44-6.96s7.42,2.89,7.42,6.96-3.12,6.96-7.42,6.96-7.44-2.89-7.44-6.96"/>
      <path class="cls-2" d="M58.48,161.61v13.53h-3.72v-1.61c-1.03,1.18-2.54,1.81-4.2,1.81-3.39,0-5.78-1.91-5.78-6.08v-7.64h3.92v7.06c0,2.26,1.01,3.27,2.74,3.27s3.12-1.16,3.12-3.64v-6.69h3.92Z"/>
      <rect class="cls-1" x="244.41" width="26.93" height="121.26"/>
      <path class="cls-1" d="M102.57,121.26v-43.87c0-2.26-.16-4.43-.49-6.53-.32-2.1-.91-3.89-1.77-5.4-.86-1.5-2.01-2.71-3.47-3.63-1.45-.92-3.36-1.37-5.72-1.37s-4.22.48-5.89,1.45c-1.67.97-3.06,2.26-4.19,3.87-1.13,1.61-1.96,3.47-2.5,5.56-.54,2.1-.81,4.27-.81,6.53v43.38h-26.45v-45.8c0-4.62-.92-8.28-2.74-10.97-1.83-2.69-4.73-4.03-8.71-4.03-4.19,0-7.45,1.67-9.76,5-2.31,3.33-3.47,7.42-3.47,12.26v43.54H0V40.38h25.64v11.69h.32c.97-1.72,2.18-3.39,3.63-5,1.45-1.61,3.2-3.04,5.24-4.27,2.04-1.23,4.33-2.23,6.86-2.98,2.53-.75,5.3-1.13,8.31-1.13,5.81,0,10.72,1.18,14.76,3.55,4.03,2.37,7.18,5.75,9.44,10.16,2.68-4.19,6.13-7.52,10.32-10,4.19-2.47,9.3-3.71,15.32-3.71,5.48,0,10.08,1,13.79,2.98,3.71,1.99,6.69,4.57,8.95,7.74,2.26,3.17,3.89,6.72,4.92,10.64,1.02,3.93,1.53,7.77,1.53,11.53v49.67h-26.45Z"/>
      <path class="cls-1" d="M149.34,40.94h26.45v80.32h-26.45V40.94ZM177.72,15.3c0,2.04-.4,3.95-1.21,5.72-.81,1.77-1.88,3.31-3.23,4.6-1.34,1.29-2.96,2.31-4.84,3.07-1.88.75-3.85,1.13-5.89,1.13-4.3,0-7.9-1.42-10.81-4.27-2.9-2.85-4.35-6.26-4.35-10.24,0-1.94.38-3.79,1.13-5.56.75-1.77,1.83-3.31,3.23-4.6,1.4-1.29,3.01-2.34,4.84-3.15,1.83-.81,3.82-1.21,5.97-1.21,2.04,0,4,.38,5.89,1.13,1.88.75,3.49,1.77,4.84,3.06,1.34,1.29,2.42,2.82,3.23,4.6.81,1.77,1.21,3.68,1.21,5.73"/>
      <path class="cls-1" d="M356.57,80.78c0-2.58-.4-5.11-1.21-7.58-.81-2.47-1.99-4.65-3.55-6.53-1.56-1.88-3.52-3.41-5.88-4.6-2.37-1.18-5.11-1.77-8.23-1.77s-5.7.59-8.06,1.77c-2.37,1.18-4.38,2.74-6.05,4.68-1.67,1.93-2.96,4.14-3.87,6.61-.92,2.48-1.37,5-1.37,7.58s.46,5.11,1.37,7.58c.91,2.47,2.2,4.68,3.87,6.61,1.66,1.94,3.68,3.5,6.05,4.68,2.37,1.19,5.05,1.77,8.06,1.77s5.86-.59,8.23-1.77c2.36-1.18,4.33-2.74,5.88-4.68,1.56-1.93,2.74-4.16,3.55-6.69.81-2.52,1.21-5.08,1.21-7.66M382.22,80.78c0,5.59-.86,10.97-2.58,16.13-1.72,5.16-4.22,9.71-7.5,13.63-3.28,3.92-7.29,7.07-12.02,9.44-4.73,2.36-10.11,3.55-16.13,3.55-4.95,0-9.62-1-14.03-2.98-4.41-1.99-7.85-4.7-10.32-8.14h-.32v49.19h-26.45V40.38h25.16v10.4h.49c2.47-3.23,5.89-6.05,10.24-8.47,4.35-2.42,9.49-3.63,15.4-3.63s11.07,1.13,15.81,3.38c4.73,2.26,8.73,5.32,12.02,9.19,3.28,3.87,5.81,8.36,7.58,13.47,1.77,5.11,2.66,10.46,2.66,16.05"/>
      <path class="cls-1" d="M446.24,86.26h-3.39c-2.9,0-5.83.14-8.79.4-2.96.27-5.59.78-7.9,1.53-2.31.75-4.22,1.85-5.73,3.31-1.51,1.45-2.26,3.36-2.26,5.72,0,1.5.35,2.8,1.05,3.87.7,1.08,1.58,1.93,2.66,2.58,1.07.65,2.31,1.1,3.71,1.37,1.39.27,2.74.4,4.03.4,5.37,0,9.49-1.48,12.34-4.44,2.85-2.95,4.27-6.96,4.27-12.02v-2.74ZM397.7,51.91c4.73-4.51,10.24-7.9,16.53-10.16,6.29-2.26,12.71-3.39,19.27-3.39s12.5.83,17.17,2.5c4.68,1.67,8.47,4.25,11.37,7.74,2.9,3.49,5.03,7.9,6.37,13.23,1.34,5.32,2.02,11.64,2.02,18.95v40.48h-24.19v-8.55h-.48c-2.04,3.33-5.13,5.91-9.27,7.74-4.14,1.83-8.63,2.74-13.47,2.74-3.23,0-6.56-.43-10-1.29-3.44-.86-6.59-2.26-9.44-4.19-2.85-1.94-5.19-4.52-7.02-7.74-1.83-3.23-2.74-7.2-2.74-11.93,0-5.81,1.59-10.48,4.76-14.03,3.17-3.55,7.26-6.29,12.26-8.23,5-1.94,10.56-3.23,16.69-3.87,6.13-.64,12.1-.97,17.9-.97v-1.29c0-3.98-1.4-6.91-4.19-8.79-2.8-1.88-6.24-2.82-10.32-2.82-3.76,0-7.39.81-10.89,2.42-3.49,1.61-6.48,3.54-8.95,5.8l-13.39-14.35Z"/>
      <path class="cls-1" d="M540.87,62.72c-1.18-.32-2.34-.54-3.47-.64-1.13-.11-2.23-.16-3.3-.16-3.55,0-6.53.64-8.95,1.93-2.42,1.29-4.35,2.84-5.81,4.67-1.45,1.83-2.5,3.81-3.15,5.95-.65,2.15-.97,4.02-.97,5.63v41.18h-26.45V40.38h25.48v12.27h.32c2.04-4.11,4.94-7.47,8.71-10.07,3.76-2.6,8.12-3.9,13.07-3.9,1.07,0,2.12.05,3.14.16,1.02.11,1.85.27,2.5.48l-1.13,23.38Z"/>
      <rect class="cls-1" x="197.08" width="26.93" height="121.26"/>
    </g>
  </g>
</svg>